# xmcd
#
# Track frame offsets:
#	182
#	15562
#	27192
#	40600
#	59527
#	72082
#	103612
#	113485
#	132662
#	152435
#	168067
#	186342
#	202457
#	219890
#	232105
#	245957
#	263047
#	279457
#	295572
#	311095
#	324732
#
# Disc length: 4527 seconds
#
# Revision: 0
# Processed by: cddbd v1.5.2PL0 Copyright (c) Steve Scherf et al.
# Submitted via: dBpowerAMP V4.0
#
DISCID=3311ad15
DTITLE=Various Artist - Hitsville USA - The Motown Singles 1972-1992 - CD1
DYEAR=1993
DGENRE=Soul
TTITLE0=Michael Jackson - Got To Be There
TTITLE1=The Supremes - Floy Joy
TTITLE2=Four Tops - A Simple Game
TTITLE3=Junior Walker and The All Stars - Walk In The Night
TTITLE4=MIchael Jackson - Ben
TTITLE5=The Temptations - Papa Was A Rolling Stone
TTITLE6=Valerie Simpson - Silly Wasn't I
TTITLE7=Stevie Wonder - Superstition
TTITLE8=Gladys Knight and The Pips - Neither One Of Us Wants To Be TheFirst To Say Goodbye
TTITLE9=Diana Ross - Touch Me In The Morning
TTITLE10=Marvin Gaye - Let's Get It On
TTITLE11=Eddie Kenricks - Keep On Truckin' Part 1
TTITLE12=Eddie Kendricks - Boogie Down
TTITLE13=Jackson Five - Dancing Machine
TTITLE14=The Miracles - Do It Baby
TTITLE15=The Dynamic Superiors - Shoe Shoe Shine
TTITLE16=Syreeta - Harmour Love
TTITLE17=Willie Hutch - Love Power
TTITLE18=G C Cameron - It's So Hard To Say Goodbye To Yesterday
TTITLE19=The Miracles - Love Machine Part 1
TTITLE20=David Ruffin - Walk Away From Love
EXTD=
EXTT0=
EXTT1=
EXTT2=
EXTT3=
EXTT4=
EXTT5=
EXTT6=
EXTT7=
EXTT8=
EXTT9=
EXTT10=
EXTT11=
EXTT12=
EXTT13=
EXTT14=
EXTT15=
EXTT16=
EXTT17=
EXTT18=
EXTT19=
EXTT20=
PLAYORDER=
